<svg width="26" height="26" viewBox="0 0 26 26" fill="none" xmlns="http://www.w3.org/2000/svg">
<path d="M5.51108 13C5.51108 12.3786 6.01476 11.875 6.63608 11.875H11.875V6.636C11.875 6.01468 12.3787 5.511 13 5.511C13.6213 5.511 14.125 6.01468 14.125 6.636V11.875H19.364C19.9853 11.875 20.489 12.3786 20.489 13C20.489 13.6213 19.9853 14.125 19.364 14.125H14.125V19.3639C14.125 19.9852 13.6213 20.4889 13 20.4889C12.3787 20.4889 11.875 19.9852 11.875 19.3639V14.125H6.63608C6.01476 14.125 5.51108 13.6213 5.51108 13Z" fill="url(#paint0_linear_254_77)"/>
<path fill-rule="evenodd" clip-rule="evenodd" d="M5.9751 0.653107C10.6064 0.135488 15.3935 0.135488 20.0249 0.653107C22.7644 0.959294 24.9768 3.11726 25.299 5.8727C25.8529 10.6081 25.8529 15.3919 25.299 20.1273C24.9768 22.8827 22.7644 25.0407 20.0249 25.3468C15.3935 25.8645 10.6064 25.8645 5.9751 25.3468C3.23553 25.0407 1.02318 22.8827 0.700907 20.1273C0.147061 15.3919 0.147061 10.6081 0.700907 5.8727C1.02318 3.11726 3.23553 0.959294 5.9751 0.653107ZM19.7749 2.88918C15.3097 2.39013 10.6903 2.39013 6.22502 2.88918C4.50837 3.08105 3.13429 4.43591 2.93567 6.13408C2.40214 10.6958 2.40214 15.3042 2.93567 19.8659C3.13429 21.564 4.50837 22.9189 6.22501 23.1108C10.6903 23.6098 15.3097 23.6098 19.7749 23.1108C21.4916 22.9189 22.8657 21.564 23.0643 19.8659C23.5978 15.3042 23.5978 10.6958 23.0643 6.13408C22.8657 4.43591 21.4916 3.08105 19.7749 2.88918Z" fill="url(#paint1_linear_254_77)"/>
<defs>
<linearGradient id="paint0_linear_254_77" x1="13" y1="0.264893" x2="13" y2="25.7351" gradientUnits="userSpaceOnUse">
<stop offset="0.0677083" stop-color="#6E94F4"/>
<stop offset="0.536458" stop-color="#7B5DFA"/>
<stop offset="1" stop-color="#882BFF"/>
</linearGradient>
<linearGradient id="paint1_linear_254_77" x1="13" y1="0.264893" x2="13" y2="25.7351" gradientUnits="userSpaceOnUse">
<stop offset="0.0677083" stop-color="#6E94F4"/>
<stop offset="0.536458" stop-color="#7B5DFA"/>
<stop offset="1" stop-color="#882BFF"/>
</linearGradient>
</defs>
</svg>
