<svg width="27" height="27" viewBox="0 0 27 27" fill="none" xmlns="http://www.w3.org/2000/svg">
<path fill-rule="evenodd" clip-rule="evenodd" d="M16.5776 18.1686C12.6022 21.3526 6.78304 21.102 3.09787 17.4168C-0.85619 13.4627 -0.85619 7.05193 3.09787 3.09787C7.05193 -0.856191 13.4627 -0.85619 17.4168 3.09787C21.102 6.78304 21.3526 12.6022 18.1686 16.5776L25.902 24.311C26.3414 24.7504 26.3414 25.4627 25.902 25.902C25.4627 26.3414 24.7504 26.3414 24.311 25.902L16.5776 18.1686ZM4.68886 15.8258C1.61348 12.7504 1.61348 7.76424 4.68886 4.68886C7.76424 1.61348 12.7504 1.61348 15.8258 4.68886C18.8989 7.76198 18.9012 12.7431 15.8326 15.819C15.8303 15.8212 15.828 15.8235 15.8258 15.8258C15.8235 15.828 15.8213 15.8303 15.819 15.8325C12.7431 18.9012 7.76198 18.8989 4.68886 15.8258Z" fill="url(#paint0_linear_624_9)"/>
<defs>
<linearGradient id="paint0_linear_624_9" x1="13.1819" y1="0.132324" x2="13.1819" y2="26.2315" gradientUnits="userSpaceOnUse">
<stop offset="0.0677083" stop-color="#6E94F4"/>
<stop offset="0.536458" stop-color="#7B5DFA"/>
<stop offset="1" stop-color="#882BFF"/>
</linearGradient>
</defs>
</svg>
